<svg width="200" height="83" viewBox="0 0 200 83" fill="none" xmlns="http://www.w3.org/2000/svg">
<path d="M171.459 81.0102H129.288C122.153 81.0102 117.551 76.4073 117.551 69.1578V34.7515H102.361L92.772 24.165H117.551V5.6385H130.208V24.165H171.459L161.869 34.7515H130.208V66.9715C130.208 69.2729 131.244 70.4236 133.43 70.4236H157.075L171.459 81.0102Z" fill="#7B29FF"/>
<path d="M85.2784 82.6212C70.6643 82.6212 60.5381 76.0621 58.5818 63.4043L70.3191 60.5275C71.815 69.6181 78.0289 72.4949 85.2784 72.4949C92.6429 72.4949 96.5554 69.5031 96.5554 65.1303C96.5554 60.8727 92.9881 59.1466 85.7387 57.7658L81.9413 57.1904C70.3191 55.0041 60.8833 50.5163 60.8833 39.6996C60.8833 28.7678 69.6287 22.554 82.9769 22.554C95.7499 22.554 104.265 28.7678 106.797 38.3187L95.0594 41.7709C93.7936 35.2118 89.3059 32.6803 82.9769 32.6803C76.7631 32.6803 73.0808 35.0968 73.0808 39.1242C73.0808 43.497 76.7631 45.223 82.7468 46.2587L86.4291 46.834C98.9719 49.1354 108.868 52.8177 108.868 64.4399C108.868 76.0621 99.5472 82.6212 85.2784 82.6212Z" fill="#7B29FF"/>
<path d="M59.2095 81.0102H0V0.460281H13.2332V68.9277H59.2095V81.0102Z" fill="#7B29FF"/>
<path d="M171.542 80.9386C155.153 80.9386 143.194 70.4915 143.194 53.4061V51.7737C143.194 34.5795 155.153 24.1324 171.542 24.1324C187.93 24.1324 200 34.5795 200 51.7737V53.4061C200 70.4915 187.93 80.9386 171.542 80.9386ZM171.542 70.2738C181.065 70.2738 187.819 63.962 187.819 53.0796V51.9914C187.819 41.2178 181.175 34.7972 171.542 34.7972C161.908 34.7972 155.264 41.2178 155.264 51.9914V53.0796C155.264 63.962 162.018 70.2738 171.542 70.2738Z" fill="#7B29FF"/>
<path d="M53.8114 16.8004C48.9784 16.8004 45.4112 13.3483 45.4112 8.4002C45.4112 3.33707 48.9784 0 53.8114 0C58.6444 0 62.3267 3.33707 62.3267 8.4002C62.3267 13.3483 58.6444 16.8004 53.8114 16.8004ZM60.1403 81.0102H47.5975V24.165H60.1403V81.0102Z" fill="#7B29FF"/>
</svg>
